<svg width="415" height="493" viewBox="0 0 415 493" fill="none" xmlns="http://www.w3.org/2000/svg">
<path d="M40 42C40 40.8954 40.8954 40 42 40H372.269C373.373 40 374.269 40.8954 374.269 42V450.261C374.269 451.365 373.373 452.261 372.269 452.261H42C40.8954 452.261 40 451.365 40 450.261V42Z" fill="white"/>
<path d="M42 40V41H372.269V40V39H42V40ZM374.269 42H373.269V450.261H374.269H375.269V42H374.269ZM372.269 452.261V451.261H42V452.261V453.261H372.269V452.261ZM40 450.261H41V42H40H39V450.261H40ZM42 452.261V451.261C41.4477 451.261 41 450.813 41 450.261H40H39C39 451.918 40.3432 453.261 42 453.261V452.261ZM374.269 450.261H373.269C373.269 450.813 372.821 451.261 372.269 451.261V452.261V453.261C373.925 453.261 375.269 451.918 375.269 450.261H374.269ZM372.269 40V41C372.821 41 373.269 41.4477 373.269 42H374.269H375.269C375.269 40.3431 373.925 39 372.269 39V40ZM42 40V39C40.3431 39 39 40.3431 39 42H40H41C41 41.4477 41.4477 41 42 41V40Z" fill="black" fill-opacity="0.1"/>
<path d="M190.127 223.781C190.127 224.111 190.127 225.931 189.219 244.766C188.391 261.955 186.497 294.621 185.644 311.946C184.646 332.246 187.617 337.251 190.034 343.093C190.622 344.436 191.117 345.591 191.454 346.681C191.792 347.771 191.957 348.761 192.627 350.281" stroke="#769F7C" stroke-width="2" stroke-linecap="round"/>
<path d="M199.627 334.781C199.627 332.136 198.967 324.811 198.047 319.466C197.667 317.257 196.797 315.126 195.802 313.623C195.388 312.998 194.147 313.771 193.472 314.521C188.992 319.499 190.127 331.251 189.712 336.261C189.627 339.741 190.122 343.101 190.872 345.596C191.127 346.771 191.127 347.761 191.627 349.781" stroke="#769F7C" stroke-width="2" stroke-linecap="round"/>
<path d="M199.127 342.281C199.127 340.296 198.797 334.971 198.212 330.796C197.623 326.591 197.632 350.771 196.799 351.693C193.385 355.477 195.797 339.301 195.212 333.723C195.012 331.815 195.127 329.331 194.549 329.046C189.406 326.507 190.297 336.771 189.549 337.363C187.674 338.85 188.127 328.661 188.374 322.238C188.622 315.803 189.132 341.271 188.299 341.533C179.509 344.305 190.287 323.301 191.704 320.451C193.615 316.61 193.627 332.226 193.792 339.981C193.841 342.296 194.287 341.301 194.622 339.966C195.366 337 195.627 330.166 195.874 322.911C195.948 320.758 196.617 321.761 196.872 323.178C198.011 329.512 194.467 334.591 193.547 337.693C193.162 338.991 192.297 334.126 191.219 332.953C186.761 328.102 185.627 346.921 185.624 349.368C185.613 360.607 190.127 326.481 190.542 321.051C190.65 319.633 190.627 317.981 190.627 318.368C190.627 326.098 189.297 333.421 188.712 335.293C186.749 341.577 189.452 322.461 190.372 321.038C191.021 320.035 188.467 324.271 187.467 326.348C185.466 330.505 191.607 335.921 194.702 337.871C203.22 343.238 191.637 319.801 190.794 313.568C188.725 298.257 191.957 293.471 193.122 288.798C194.249 284.28 194.792 281.291 195.372 280.286C197.375 276.816 199.617 291.891 199.632 317.026C199.635 321.479 198.147 321.121 197.142 320.786C195.147 320.121 192.972 319.286 190.809 318.206C188.827 317.216 187.632 315.291 186.882 312.306C186.392 310.355 186.627 307.341 186.792 306.306C187.128 304.198 188.287 314.571 189.954 321.426C190.519 323.747 190.792 325.771 191.289 326.776C195.656 335.596 193.617 298.311 194.789 293.133C196.211 286.858 197.627 273.381 197.047 264.466C196.764 260.117 194.467 256.301 192.634 253.368C191.798 252.03 191.127 262.876 191.457 275.028C191.936 292.666 204.437 308.081 209.774 315.173C210.89 316.655 211.777 317.431 212.119 317.361C211.467 313.796 204.187 298.241 199.717 287.136C199.297 285.791 198.967 284.801 198.127 282.281" stroke="#769F7C" stroke-width="2" stroke-linecap="round"/>
<path d="M191.627 278.781C191.627 278.121 191.627 271.841 191.462 263.501C191.366 258.669 185.797 278.091 184.134 284.921C183.72 286.625 183.137 287.921 182.964 288.023C182.06 288.561 186.262 276.706 191.754 260.316C198.562 240 200.947 228.841 202.539 224.033C203.93 219.835 202.297 233.091 200.799 238.926C200.455 240.269 200.297 241.261 199.964 241.193C199.632 241.126 199.137 239.971 198.799 238.798C198.141 236.51 197.962 246.006 197.382 259.781C197.29 261.962 195.627 239.911 195.544 219.916C195.501 209.28 194.297 200.671 193.464 196.116C192.585 191.304 190.967 205.091 189.469 213.233C185.982 232.199 184.137 238.751 183.129 244.256C182.769 246.225 182.797 249.221 182.629 249.761C182.192 251.173 184.437 229.286 187.937 202.876C189.184 193.468 189.127 192.141 189.209 190.883C189.368 188.464 189.627 197.346 189.544 204.346C189.314 223.911 188.467 162.996 187.384 155.251C186.971 152.29 186.797 151.301 186.629 151.368C179.632 154.188 185.962 170.271 186.124 171.193C186.416 172.848 188.457 167.626 189.122 166.371C189.642 165.389 189.962 169.271 189.794 170.276C189.243 173.582 190.957 163.126 191.539 161.953C195.3 154.384 188.297 186.411 187.712 190.776C187.115 195.228 187.127 172.071 187.707 162.381C187.96 158.157 189.457 154.301 190.122 144.568C190.346 141.285 192.957 139.791 193.292 140.023C197.152 142.703 191.637 154.386 190.137 172.876C189.135 185.231 189.627 203.741 189.709 213.756C189.792 223.771 189.957 224.761 190.042 227.003C190.127 229.246 190.127 232.711 190.127 236.281" stroke="#769F7C" stroke-width="2" stroke-linecap="round"/>
<path d="M191.627 291.281C189.637 291.281 183.667 292.271 178.229 293.028C171.995 293.897 166.167 297.261 161.142 299.358C160.138 299.778 159.147 300.271 159.297 300.361C167.204 305.105 180.117 289.786 180.627 289.036C183.714 284.496 162.897 291.431 154.227 292.778C150.132 293.415 146.147 294.111 141.727 295.773C140.604 296.196 139.647 296.771 140.127 296.943C153.191 301.638 175.597 290.291 181.439 288.703C186.26 287.394 189.117 285.951 189.874 285.286C193.487 282.115 179.487 285.111 170.992 285.446C165.962 285.644 162.147 288.441 159.627 290.358C167.097 289.291 176.757 286.621 183.934 284.456C185.612 283.951 187.097 283.621 189.127 282.781" stroke="#769F7C" stroke-width="2" stroke-linecap="round"/>
<path d="M178.627 294.281C177.302 295.936 173.647 299.601 171.709 302.026C167.792 306.929 185.097 294.801 190.364 292.036C188.302 294.271 185.802 296.941 184.634 297.446C184.292 297.291 184.457 296.301 186.127 293.281" stroke="#769F7C" stroke-width="2" stroke-linecap="round"/>
<path d="M141.627 284.281H172.127" stroke="#769F7C" stroke-width="2" stroke-linecap="round"/>
<path d="M185.127 283.281C185.787 283.281 194.377 283.281 206.217 283.446C209.81 283.496 208.487 283.941 207.147 284.193C205.807 284.446 204.487 284.611 203.312 284.696C202.137 284.781 201.147 284.781 212.104 284.781C223.062 284.781 245.997 284.781 258.472 284.863C270.947 284.946 272.267 285.111 273.854 285.196C277.253 285.378 259.492 287.921 229.247 292.086C214.058 294.178 207.147 296.441 200.477 296.781C195.511 297.034 212.252 296.281 218.007 295.868C224.823 295.38 197.497 287.961 193.049 286.203C184.813 282.949 217.587 289.271 223.442 290.278C225.601 290.65 227.617 290.946 227.302 291.196C226.278 292.009 222.367 291.281 224.622 291.281C226.877 291.281 235.127 291.281 238.057 291.363C243.131 291.506 226.637 289.286 226.292 288.536C225.052 285.841 234.762 289.106 236.129 290.438C237.447 291.722 227.597 291.111 225.349 291.773C220.306 293.26 232.777 298.101 236.612 300.523C237.534 301.106 238.607 301.111 238.374 301.113C233.596 301.165 228.317 298.956 225.559 297.541C224.326 296.908 232.417 296.281 236.689 295.456C226.637 290.786 223.637 289.781 222.137 289.203C221.627 288.626 221.627 287.471 220.127 284.281" stroke="#769F7C" stroke-width="2" stroke-linecap="round"/>
<path d="M201.627 258.281C202.287 258.281 205.927 258.281 209.442 258.281C209.657 258.281 206.687 258.281 207.879 258.281C220.969 258.281 224.937 260.941 228.537 262.608C228.637 262.946 227.647 263.111 225.074 263.196C222.502 263.281 218.377 263.281 214.127 263.281" stroke="#769F7C" stroke-width="2" stroke-linecap="round"/>
<path d="M207.127 263.281C206.962 263.116 206.797 262.951 204.979 262.866C199.702 262.619 210.647 262.781 228.769 262.781C232.372 262.781 224.617 262.781 221.199 262.946C217.782 263.111 218.937 263.441 220.522 264.023C224.12 265.346 226.787 267.106 227.292 268.356C229.053 272.715 214.327 270.441 207.899 270.863C206.473 270.957 205.317 271.111 205.382 271.443C206.209 275.672 213.937 275.271 219.597 276.443C225.965 277.763 234.747 277.781 240.592 277.781C246.426 277.781 229.137 274.786 228.132 273.623C225.347 270.402 238.747 268.631 245.169 265.966C247.08 265.173 245.817 264.621 243.984 264.286C235.806 262.791 231.147 261.451 223.324 259.538C218.206 258.287 213.487 258.281 208.727 257.783C206.632 257.565 204.637 257.116 202.477 256.866C201.312 256.731 199.987 256.781 203.184 258.513C224.025 269.805 232.607 270.106 236.184 271.521C238.937 272.441 229.402 272.781 212.657 272.451C206.637 272.121 205.647 271.461 203.127 270.281" stroke="#769F7C" stroke-width="2" stroke-linecap="round"/>
<path d="M192.127 256.781C191.797 256.781 189.812 256.781 187.887 256.368C182.337 255.179 199.102 251.791 202.357 250.208C203.064 249.865 195.847 249.611 181.164 251.018C158.319 253.209 143.637 256.111 142.632 256.776C141.648 257.427 161.457 257.451 187.947 256.786C199.602 256.493 202.617 255.451 203.622 254.951C206.476 253.531 195.817 257.771 181.349 265.251C172.517 269.817 163.637 273.946 162.714 274.113C159.144 274.762 170.607 271.791 176.684 269.623C178.455 268.992 180.257 268.131 179.872 267.458C178.261 264.645 167.197 265.781 157.357 265.533C154.437 265.46 155.767 264.791 157.107 264.288C164.007 261.701 172.437 259.621 176.612 258.783C177.617 258.616 178.607 258.451 179.612 258.201C180.617 257.951 181.607 257.621 182.627 257.281" stroke="#769F7C" stroke-width="2" stroke-linecap="round"/>
<path d="M199.127 238.281C199.457 238.281 199.787 238.281 200.534 238.281C202.437 238.281 195.542 238.281 183.787 237.951C180.104 237.848 181.107 236.961 182.112 236.456C186.818 234.091 194.427 232.791 199.692 230.953C204.562 229.254 210.427 228.791 215.527 227.783C217.593 227.375 219.617 227.116 220.622 227.031C223.733 226.768 210.677 228.941 201.739 230.111C198.837 230.491 196.637 230.446 195.879 230.861C187.061 235.692 221.937 232.441 225.704 233.028C229.91 233.684 209.727 235.601 201.227 236.363C199.141 236.551 196.807 236.946 196.292 236.948C187.808 236.99 209.607 233.951 215.934 234.361C219.143 234.569 221.782 235.281 223.037 235.363C223.137 235.446 222.147 235.611 222.132 235.778C222.117 235.946 223.107 236.111 223.127 235.781" stroke="#769F7C" stroke-width="2" stroke-linecap="round"/>
<path d="M188.627 210.781C188.297 210.781 186.807 210.781 185.467 210.698C180.288 210.38 196.782 209.116 197.872 209.031C211.161 207.995 162.817 221.106 161.132 221.778C150.828 225.891 178.282 217.116 179.454 216.948C180.592 216.786 175.972 217.611 174.717 218.276C174.408 218.44 175.607 218.941 174.879 219.276C168.489 222.219 163.647 221.611 160.962 222.528C153.318 225.14 180.762 217.956 185.017 216.706C194.773 213.84 153.827 227.431 149.142 229.441C148.11 229.884 147.147 230.601 147.462 231.188C152.371 240.343 173.107 231.791 175.957 229.621C177.157 228.707 171.312 229.776 168.067 230.773C166.618 231.219 165.647 231.771 167.777 230.541C175.187 226.341 183.597 221.961 188.592 219.713C190.617 218.786 191.607 218.291 191.127 217.781" stroke="#769F7C" stroke-width="2" stroke-linecap="round"/>
<path d="M196.127 201.781H195.627" stroke="#769F7C" stroke-width="2" stroke-linecap="round"/>
<path d="M194.627 201.781C197.272 201.946 211.527 204.261 223.844 207.106C225.795 207.557 226.937 207.941 228.027 208.111C230.838 208.549 208.837 206.621 203.642 206.116C199.628 205.726 197.802 202.121 196.964 200.708C196.581 200.061 197.777 199.131 198.779 198.623C200.796 197.603 203.117 197.616 204.122 197.118C207.117 195.636 196.817 194.951 193.632 194.118C193.617 193.786 194.607 193.291 196.684 193.036C198.762 192.781 201.897 192.781 205.127 192.781" stroke="#769F7C" stroke-width="2" stroke-linecap="round"/>
<path d="M203.627 221.781C206.272 221.781 212.607 222.441 218.019 223.361C225.285 224.596 229.607 225.941 233.612 227.276C237.617 228.611 240.452 229.941 241.207 231.106C241.941 232.238 237.972 232.446 235.727 232.861C234.637 233.111 233.647 233.441 235.694 233.611C237.742 233.781 242.857 233.781 246.127 233.781" stroke="#769F7C" stroke-width="2" stroke-linecap="round"/>
<path d="M189.627 182.281C191.612 182.281 196.607 180.961 201.442 179.203C203.65 178.401 205.617 177.286 206.622 176.371C206.637 175.951 205.647 175.621 204.642 175.533C203.637 175.446 202.647 175.611 200.127 176.281" stroke="#769F7C" stroke-width="2" stroke-linecap="round"/>
<path d="M199.627 176.281C199.957 176.281 204.252 176.281 208.852 176.281C209.327 176.281 206.027 176.281 202.759 176.363C199.492 176.446 196.357 176.611 193.127 176.781" stroke="#769F7C" stroke-width="2" stroke-linecap="round"/>
<path d="M193.127 176.781C193.457 175.291 195.447 171.631 198.117 168.046C198.879 167.023 199.447 165.641 199.457 165.456C199.467 165.271 198.807 166.261 198.549 166.193C195.091 165.287 199.127 158.136 199.044 155.876C198.852 150.601 195.647 174.341 194.212 180.621C191.844 190.982 185.802 164.621 184.717 164.116C180.196 162.012 185.457 176.761 185.714 179.281C186.521 187.174 177.807 166.471 171.902 156.238C170.444 153.712 168.987 152.311 168.802 152.206C164.804 149.937 172.287 161.591 172.709 166.596C173.066 170.822 175.117 175.421 177.699 179.268C178.327 180.203 179.277 180.931 180.197 181.026C184.341 181.454 187.117 179.281 187.874 179.363C192.637 179.882 176.167 182.101 167.657 185.518C165.802 186.263 164.487 186.771 164.549 186.778C169.063 187.32 172.447 183.121 173.952 182.286C177.769 180.168 163.647 187.771 160.969 191.348C159.355 193.505 158.132 195.771 158.537 196.776C161.384 203.84 170.277 190.961 174.859 188.291C175.967 187.646 176.777 186.961 174.397 188.106C166.298 192.002 159.637 195.941 158.879 196.611C152.831 201.96 176.107 188.611 179.287 188.778C179.467 189.106 178.807 189.931 177.972 190.686C177.137 191.441 176.147 192.101 175.627 193.781" stroke="#769F7C" stroke-width="2" stroke-linecap="round"/>
<rect x="40" y="4" width="59.3333" height="30" rx="3" fill="white"/>
<rect x="40.5" y="4.5" width="58.3333" height="29" rx="2.5" stroke="black" stroke-opacity="0.2"/>
<path d="M51.3438 16C51.2969 15.6042 51.1068 15.2969 50.7734 15.0781C50.4401 14.8594 50.0313 14.75 49.5469 14.75C49.1927 14.75 48.8828 14.8073 48.6172 14.9219C48.3542 15.0365 48.1484 15.194 48 15.3945C47.8542 15.5951 47.7813 15.8229 47.7813 16.0781C47.7813 16.2917 47.832 16.4753 47.9336 16.6289C48.0378 16.7799 48.1706 16.9062 48.332 17.0078C48.4935 17.1068 48.6628 17.1888 48.8398 17.2539C49.0169 17.3164 49.1797 17.3672 49.3281 17.4062L50.1406 17.625C50.349 17.6797 50.5807 17.7552 50.8359 17.8516C51.0938 17.9479 51.3398 18.0794 51.5742 18.2461C51.8112 18.4102 52.0065 18.6211 52.1602 18.8789C52.3138 19.1367 52.3906 19.4531 52.3906 19.8281C52.3906 20.2604 52.2773 20.651 52.0508 21C51.8268 21.349 51.4987 21.6263 51.0664 21.832C50.6367 22.0378 50.1146 22.1406 49.5 22.1406C48.9271 22.1406 48.431 22.0482 48.0117 21.8633C47.5951 21.6784 47.2669 21.4206 47.0273 21.0898C46.7904 20.7591 46.6563 20.375 46.625 19.9375H47.625C47.651 20.2396 47.7526 20.4896 47.9297 20.6875C48.1094 20.8828 48.3359 21.0286 48.6094 21.125C48.8854 21.2187 49.1823 21.2656 49.5 21.2656C49.8698 21.2656 50.2018 21.2057 50.4961 21.0859C50.7904 20.9635 51.0234 20.7943 51.1953 20.5781C51.3672 20.3594 51.4531 20.1042 51.4531 19.8125C51.4531 19.5469 51.3789 19.3307 51.2305 19.1641C51.082 18.9974 50.8867 18.862 50.6445 18.7578C50.4023 18.6536 50.1406 18.5625 49.8594 18.4844L48.875 18.2031C48.25 18.0234 47.7552 17.7669 47.3906 17.4336C47.026 17.1003 46.8438 16.6641 46.8438 16.125C46.8438 15.6771 46.9648 15.2865 47.207 14.9531C47.4518 14.6172 47.7799 14.3568 48.1914 14.1719C48.6055 13.9844 49.0677 13.8906 49.5781 13.8906C50.0938 13.8906 50.5521 13.9831 50.9531 14.168C51.3542 14.3503 51.6719 14.6003 51.9062 14.918C52.1432 15.2357 52.2682 15.5964 52.2813 16H51.3438ZM56.374 22.125C55.7959 22.125 55.2972 21.9974 54.8779 21.7422C54.4613 21.4844 54.1396 21.125 53.9131 20.6641C53.6891 20.2005 53.5771 19.6615 53.5771 19.0469C53.5771 18.4323 53.6891 17.8906 53.9131 17.4219C54.1396 16.9505 54.4548 16.5833 54.8584 16.3203C55.2646 16.0547 55.7386 15.9219 56.2803 15.9219C56.5928 15.9219 56.9014 15.974 57.2061 16.0781C57.5107 16.1823 57.7881 16.3516 58.0381 16.5859C58.2881 16.8177 58.4873 17.125 58.6357 17.5078C58.7842 17.8906 58.8584 18.362 58.8584 18.9219V19.3125H54.2334V18.5156H57.9209C57.9209 18.1771 57.8532 17.875 57.7178 17.6094C57.585 17.3437 57.3949 17.1341 57.1475 16.9805C56.9027 16.8268 56.6136 16.75 56.2803 16.75C55.9131 16.75 55.5954 16.8411 55.3271 17.0234C55.0615 17.2031 54.8571 17.4375 54.7139 17.7266C54.5706 18.0156 54.499 18.3255 54.499 18.6562V19.1875C54.499 19.6406 54.5771 20.0247 54.7334 20.3398C54.8923 20.6523 55.1123 20.8906 55.3936 21.0547C55.6748 21.2161 56.0016 21.2969 56.374 21.2969C56.6162 21.2969 56.835 21.263 57.0303 21.1953C57.2282 21.125 57.3988 21.0208 57.542 20.8828C57.6852 20.7422 57.7959 20.5677 57.874 20.3594L58.7646 20.6094C58.6709 20.9115 58.5133 21.1771 58.292 21.4062C58.0706 21.6328 57.7972 21.8099 57.4717 21.9375C57.1462 22.0625 56.7803 22.125 56.374 22.125ZM62.6982 22.125C62.1357 22.125 61.6514 21.9922 61.2451 21.7266C60.8389 21.4609 60.5264 21.0951 60.3076 20.6289C60.0889 20.1628 59.9795 19.6302 59.9795 19.0312C59.9795 18.4219 60.0915 17.8841 60.3154 17.418C60.542 16.9492 60.8571 16.5833 61.2607 16.3203C61.667 16.0547 62.141 15.9219 62.6826 15.9219C63.1045 15.9219 63.4847 16 63.8232 16.1562C64.1618 16.3125 64.4391 16.5312 64.6553 16.8125C64.8714 17.0937 65.0055 17.4219 65.0576 17.7969H64.1357C64.0654 17.5234 63.9092 17.2812 63.667 17.0703C63.4274 16.8568 63.1045 16.75 62.6982 16.75C62.3389 16.75 62.0238 16.8437 61.7529 17.0312C61.4847 17.2161 61.2751 17.4779 61.124 17.8164C60.9756 18.1523 60.9014 18.5469 60.9014 19C60.9014 19.4635 60.9743 19.8672 61.1201 20.2109C61.2686 20.5547 61.4769 20.8216 61.7451 21.0117C62.016 21.2018 62.3337 21.2969 62.6982 21.2969C62.9378 21.2969 63.1553 21.2552 63.3506 21.1719C63.5459 21.0885 63.7113 20.9688 63.8467 20.8125C63.9821 20.6562 64.0785 20.4687 64.1357 20.25H65.0576C65.0055 20.6042 64.8766 20.9232 64.6709 21.207C64.4678 21.4883 64.1982 21.7122 63.8623 21.8789C63.529 22.043 63.141 22.125 62.6982 22.125ZM69.0146 16V16.7812H65.9053V16H69.0146ZM66.8115 14.5625H67.7334V20.2812C67.7334 20.5417 67.7712 20.737 67.8467 20.8672C67.9248 20.9948 68.0238 21.0807 68.1436 21.125C68.266 21.1667 68.3949 21.1875 68.5303 21.1875C68.6318 21.1875 68.7152 21.1823 68.7803 21.1719C68.8454 21.1589 68.8975 21.1484 68.9365 21.1406L69.124 21.9687C69.0615 21.9922 68.9743 22.0156 68.8623 22.0391C68.7503 22.0651 68.6084 22.0781 68.4365 22.0781C68.1761 22.0781 67.9209 22.0221 67.6709 21.9102C67.4235 21.7982 67.2178 21.6276 67.0537 21.3984C66.8923 21.1693 66.8115 20.8802 66.8115 20.5312V14.5625ZM70.4014 22V16H71.3232V22H70.4014ZM70.8701 15C70.6904 15 70.5355 14.9388 70.4053 14.8164C70.2777 14.694 70.2139 14.5469 70.2139 14.375C70.2139 14.2031 70.2777 14.056 70.4053 13.9336C70.5355 13.8112 70.6904 13.75 70.8701 13.75C71.0498 13.75 71.2035 13.8112 71.3311 13.9336C71.4613 14.056 71.5264 14.2031 71.5264 14.375C71.5264 14.5469 71.4613 14.694 71.3311 14.8164C71.2035 14.9388 71.0498 15 70.8701 15ZM75.4492 22.125C74.9076 22.125 74.4323 21.9961 74.0234 21.7383C73.6172 21.4805 73.2995 21.1198 73.0703 20.6562C72.8438 20.1927 72.7305 19.651 72.7305 19.0312C72.7305 18.4062 72.8438 17.8607 73.0703 17.3945C73.2995 16.9284 73.6172 16.5664 74.0234 16.3086C74.4323 16.0508 74.9076 15.9219 75.4492 15.9219C75.9909 15.9219 76.4648 16.0508 76.8711 16.3086C77.2799 16.5664 77.5977 16.9284 77.8242 17.3945C78.0534 17.8607 78.168 18.4062 78.168 19.0312C78.168 19.651 78.0534 20.1927 77.8242 20.6562C77.5977 21.1198 77.2799 21.4805 76.8711 21.7383C76.4648 21.9961 75.9909 22.125 75.4492 22.125ZM75.4492 21.2969C75.8607 21.2969 76.1992 21.1914 76.4648 20.9805C76.7305 20.7695 76.9271 20.4922 77.0547 20.1484C77.1823 19.8047 77.2461 19.4323 77.2461 19.0312C77.2461 18.6302 77.1823 18.2565 77.0547 17.9102C76.9271 17.5638 76.7305 17.2839 76.4648 17.0703C76.1992 16.8568 75.8607 16.75 75.4492 16.75C75.0378 16.75 74.6992 16.8568 74.4336 17.0703C74.168 17.2839 73.9714 17.5638 73.8438 17.9102C73.7161 18.2565 73.6523 18.6302 73.6523 19.0312C73.6523 19.4323 73.7161 19.8047 73.8438 20.1484C73.9714 20.4922 74.168 20.7695 74.4336 20.9805C74.6992 21.1914 75.0378 21.2969 75.4492 21.2969ZM80.4971 18.3906V22H79.5752V16H80.4658V16.9375H80.5439C80.6846 16.6328 80.8981 16.388 81.1846 16.2031C81.471 16.0156 81.8408 15.9219 82.2939 15.9219C82.7002 15.9219 83.0557 16.0052 83.3604 16.1719C83.665 16.3359 83.902 16.5859 84.0713 16.9219C84.2406 17.2552 84.3252 17.6771 84.3252 18.1875V22H83.4033V18.25C83.4033 17.7786 83.2809 17.4115 83.0361 17.1484C82.7913 16.8828 82.4554 16.75 82.0283 16.75C81.734 16.75 81.471 16.8138 81.2393 16.9414C81.0101 17.069 80.8291 17.2552 80.6963 17.5C80.5635 17.7448 80.4971 18.0417 80.4971 18.3906ZM91.9004 14V22H90.9316V15.0156H90.8848L88.9316 16.3125V15.3281L90.9316 14H91.9004Z" fill="black"/>
</svg>
