<svg width="121" height="259" viewBox="0 0 121 259" fill="none" xmlns="http://www.w3.org/2000/svg">
<path d="M53.1179 61.9175C53.1179 62.4125 53.1179 62.9075 53.1179 85.7675C53.1179 108.628 53.1179 153.838 52.0454 186.203C50.9729 218.568 48.8279 236.718 47.6404 246.563C46.4529 256.408 46.2879 257.398 46.3679 257.413C49.697 258.037 49.9379 249.278 52.8554 241.368C55.9468 232.986 58.2779 228.938 59.1154 224.435C59.9486 219.955 60.7779 215.608 61.6154 210.935C62.4193 206.45 62.7829 196.828 62.8679 187.06C62.9402 178.752 58.6279 207.528 57.7029 216.625C56.0222 233.154 56.7879 241.528 55.7054 249.228C55.3071 252.06 54.9529 254.408 54.5379 255.33C52.3515 260.19 52.7879 231.878 52.2029 217.153C51.4949 199.331 52.9429 188.408 54.4404 190.815C58.0532 196.623 56.6179 214.938 54.2129 225.735C53.0856 230.796 48.1279 235.558 47.2029 241.388C46.192 247.758 47.2829 252.908 48.0279 254.325C48.3631 254.963 49.5979 254.588 50.4379 254.09C53.9118 252.033 54.9379 246.938 57.0279 242.933C58.9938 239.165 59.4479 234.608 59.5354 219.643C59.5719 213.4 58.2879 208.778 58.2004 177.368C58.1847 171.737 58.4479 173.058 58.7804 174.645C60.1006 180.948 61.6079 186.218 63.1129 192.643C64.6786 199.327 64.9479 203.398 65.2004 209.893C65.3899 214.769 66.1179 230.288 66.6154 240.483C66.7419 243.076 67.1179 249.368 66.9529 256.373C66.9043 258.434 66.4579 257.438 66.1229 256.268C64.7522 251.48 64.2879 248.428 63.2929 247.093C62.8452 246.492 61.6379 247.078 60.7979 246.505C55.3758 242.81 57.2879 228.158 56.7029 219.695C56.0752 210.616 55.7879 205.938 55.2029 193.848C53.9342 167.628 55.4479 151.073 56.0304 153.318C57.0748 157.343 57.7779 161.398 59.1129 166.645C60.8195 173.353 61.9479 178.398 63.5279 185.388C63.9806 187.39 64.2779 189.378 64.5304 190.975C64.965 193.725 65.1179 177.098 64.9529 149.438C64.8689 135.37 61.9579 129.778 60.2904 124.188C59.6313 121.978 59.2879 119.928 58.7879 119.418C54.1345 114.671 59.6179 156.158 57.2954 165.688C56.9233 167.214 56.1279 162.618 55.8729 146.01C55.6179 129.403 55.6179 97.8875 56.0304 82.065C56.4429 66.2425 57.2679 67.0675 58.1054 71.1225C60.4186 82.3226 60.6179 99.3225 60.4529 114.315C60.3469 123.943 58.9579 128.558 57.7879 135.305C56.346 143.62 57.1179 148.398 56.6204 153.813C56.3674 156.566 56.1179 160.228 56.1179 160.675C56.1179 176.088 57.2779 140.608 58.6129 136.35C60.1511 131.444 62.1079 124.788 62.7004 119.103C62.9262 116.935 63.1179 114.928 63.2004 114.088C63.6947 109.054 65.4479 129.688 66.0329 136.398C66.5987 142.888 66.6179 146.898 65.9579 147.918C63.0767 152.37 62.4529 137.598 62.2029 124.46C61.978 112.644 62.1179 90.3675 61.9529 78.3975C61.7879 66.4275 61.4579 65.4375 60.5454 65.67C53.82 67.3836 52.9579 74.7425 51.6279 75.58C47.6094 78.1105 50.2779 63.9375 51.0304 40.1775C51.1867 35.2427 52.2679 34.5975 53.0229 34.7525C57.2762 35.6257 56.9479 43.2275 57.9479 51.2825C59.4849 63.6636 57.7879 72.9075 57.0404 73.7475C53.8424 77.3412 54.2879 63.2775 54.0354 56.4425C53.7647 49.1156 54.2779 39.4375 55.1154 35.4325C55.9464 31.4583 56.7779 27.4375 57.2004 22.6025C57.3901 20.4317 57.6179 18.0975 57.7829 16.9225C59.1 7.54269 58.9479 40.3975 59.6979 45.645C60.6179 56.5275 60.1229 68.9075 59.2079 70.9025C58.7879 71.9075 58.4579 72.8975 58.1179 74.4175" stroke="#7C5E5E" stroke-width="2" stroke-linecap="round"/>
<path d="M60.6179 175.918C74.1529 175.918 102.598 176.248 105.365 177.413C111.922 180.173 87.6479 178.088 81.8054 177.005C77.147 176.142 71.8179 174.598 66.8854 171.015C64.2576 169.106 61.7929 167.758 61.6154 167.665C54.8356 164.132 70.9379 174.573 73.6804 176.323C74.9802 177.152 76.5879 176.918 76.4454 176.34C74.4927 168.427 63.2929 167.258 62.7854 166.01C60.215 159.692 77.1079 164.913 77.9479 165.333C81.8361 167.277 67.8279 159.608 62.2104 155.26C56.6584 150.963 75.0979 165.568 79.9329 169.073C85.3116 172.972 93.1079 174.413 94.1129 175.163C98.9861 178.799 75.1679 169.598 62.1554 164.105C55.48 161.287 82.0979 162.248 86.2679 162.915C91.6271 163.773 95.6079 165.248 96.5304 165.83C101.664 169.071 80.1479 166.088 70.9779 164.338C66.3155 163.448 80.9279 170.078 85.6804 171.743C92.8702 174.261 96.5979 176.908 101.845 178.08C108.482 179.563 114.748 181.738 118.615 183.583C124.196 186.245 106.988 176.768 101.303 173.678C97.3238 171.515 93.1379 170.588 87.6404 168.76C81.3029 165.593 73.3279 161.938 68.2154 159.758C67.2929 159.258 66.4679 158.598 64.6179 155.418" stroke="#769F7C" stroke-width="2" stroke-linecap="round"/>
<path d="M63.1179 137.418C67.5779 137.418 77.5979 137.748 83.1804 140.323C85.4704 141.379 87.1079 143.078 87.3704 144.243C89.3409 152.988 70.1379 145.088 63.8129 142.598C61.728 141.777 59.4979 140.278 58.2254 140.093C56.9529 139.908 56.7879 140.898 57.1154 141.738C59.2407 147.189 69.5979 148.078 73.6029 148.998C77.6919 149.937 81.5979 151.248 85.6029 151.668C86.6055 151.773 87.5979 151.258 88.2729 150.51C88.9479 149.763 89.2779 148.608 89.2829 147.435C89.3095 141.184 79.6379 136.928 74.0579 133.433C68.2638 129.803 65.6279 127.923 64.7879 127.255C61.7532 124.844 76.2279 131.558 82.8454 135.155C90.4865 139.309 94.2679 141.738 98.1029 142.915C100.036 143.509 102.273 143.748 103.445 144.165C106.986 145.426 93.4879 139.278 88.9654 135.678C85.1357 132.629 79.1479 131.428 73.5554 129.01C66.9273 126.145 57.6579 124.598 53.3754 123.168C50.1696 122.097 61.7279 132.208 69.4279 137.155C74.1279 140.175 78.5979 140.248 84.8304 141.74C88.1188 142.528 93.5079 144.548 95.7354 145.235C97.8149 145.877 89.4679 139.768 86.5454 136.098C83.5929 132.39 76.9779 131.758 71.5554 130.838C66.0985 129.912 60.4879 127.438 56.6229 124.675C56.2789 124.429 57.5979 124.088 56.4579 123.92C47.3578 122.583 42.6379 121.758 37.7204 121.583C29.4608 121.289 19.1279 122.583 18.2879 122.998C14.585 124.827 27.9179 124.418 34.2629 125.33C38.6584 125.962 42.5979 127.248 45.1154 129.16C49.1206 132.203 33.1379 130.578 16.5054 131.66C14.2991 131.804 17.2279 133.888 19.5804 134.9C23.6511 136.652 37.6629 136.918 55.2529 137C60.7984 137.026 59.4779 137.248 55.4154 137.333C36.1227 137.736 30.4779 140.408 25.3029 141.415C23.1528 141.834 16.6729 141.918 10.2379 141.918C2.53609 141.918 22.5979 141.088 27.3479 139.84C35.4022 137.725 43.0979 132.098 46.4454 128.265C50.0338 124.157 32.9779 126.748 26.8079 127.415C23.9749 127.722 18.4929 127.918 14.6354 128.66C14.9029 129.403 19.6879 130.888 25.0404 131.653C30.3929 132.418 36.1679 132.418 44.6179 131.418" stroke="#769F7C" stroke-width="2" stroke-linecap="round"/>
<path d="M67.1178 96.4175C67.9378 96.9125 73.9178 99.8975 76.6178 102.663C79.7582 105.879 68.3078 96.6075 65.1228 94.1725C64.3222 93.5604 69.0978 94.7425 71.6853 95.4975C72.7241 95.8006 65.8328 89.2925 60.3978 83.0425C54.9085 76.7301 73.5978 83.0775 80.0928 86.735C85.2217 89.6232 89.2678 92.7375 91.2028 95.0775C97.182 102.308 67.8278 91.5975 62.1353 90.3375C60.9648 90.0784 59.8078 89.7575 59.6253 90C59.4428 90.2425 60.2678 91.0675 61.1878 91.9875C62.1078 92.9075 63.0978 93.8975 64.1178 94.9175" stroke="#769F7C" stroke-width="2" stroke-linecap="round"/>
<path d="M46.6179 75.4175C42.9779 75.4175 33.9879 74.7575 16.1854 73.92C12.4632 73.7449 11.3079 73.5875 10.5479 73.9975C9.78789 74.4075 9.45789 75.3975 9.86539 76.2375C12.3733 81.4072 30.0079 84.2175 40.0954 86.995C45.6261 88.5179 49.5979 88.2575 54.3479 86.6725C55.7164 86.2159 57.4179 86.4175 57.4429 86.17C57.931 81.3381 45.1679 84.4175 38.5529 88.15C36.289 89.4274 35.1279 91.0825 32.5554 91.3325C28.8444 91.6932 25.6279 91.0875 24.9529 90.4225C19.8235 85.3692 42.4179 90.4075 48.0154 91.3325C49.2589 91.538 50.4279 91.4175 51.1054 90.9225C51.7829 90.4275 51.9479 89.4375 51.4554 88.845C48.9607 85.8438 43.3079 90.0675 35.5704 94.3175C25.6207 99.7826 20.1279 99.2475 19.2054 99.2525C14.0246 99.2806 29.7579 94.5875 42.2379 93.9225C44.822 93.7848 45.4379 92.4375 45.2829 91.515C43.195 79.0885 7.82789 89.5875 1.54789 88.1725C-2.72653 87.2094 19.2079 90.4075 27.3479 91.3325C31.9379 91.5825 40.0629 91.9175 48.8079 92C52.1079 92.0825 53.0979 92.2475 55.1179 92.4175" stroke="#769F7C" stroke-width="2" stroke-linecap="round"/>
<path d="M66.1178 88.9175C69.5878 89.9075 78.5878 92.5775 86.1728 94.66C92.4115 96.3729 98.5978 95.7475 104.013 96.9125C105.444 97.2204 106.758 97.5775 106.695 97.83C105.436 102.916 84.2478 94.2875 65.5028 87.605C62.5747 86.5611 61.6378 85.9275 61.7053 85.5075C61.7728 85.0875 62.9278 84.7575 64.0178 84.5875C65.1078 84.4175 66.0978 84.4175 67.1178 84.4175" stroke="#769F7C" stroke-width="2" stroke-linecap="round"/>
<path d="M57.6178 92.4175C59.4378 93.0775 64.0978 96.0675 68.9328 99.7375C70.0833 100.611 71.0978 101.238 71.1953 101.908C71.9331 106.977 57.4778 103.588 51.7153 102.338C47.9196 101.514 62.5778 107.238 67.6028 109.41C69.5978 110.408 71.9378 111.413 73.6078 111.75C73.9578 111.593 73.2978 110.768 70.6178 108.418" stroke="#769F7C" stroke-width="2" stroke-linecap="round"/>
<path d="M58.6178 58.4175C66.8778 58.4175 84.5878 58.7475 89.1928 60.3275C93.0186 61.6402 80.6378 61.0875 76.4678 59.84C70.0845 57.9304 64.4678 52.2675 59.7203 48.5975C58.5239 47.6726 57.3078 47.0975 57.3728 47.005C60.2136 42.9624 67.2678 52.2375 71.5178 53.9125C72.5787 54.3306 73.5978 54.5775 73.6128 54.2525C73.8245 49.6661 63.8178 47.6075 60.9503 44.7575C52.7973 36.6543 88.5978 53.2425 91.1028 54.575C91.7475 54.9179 90.6378 55.2475 89.3853 55.0025C83.4757 53.8466 78.8078 50.4275 73.9728 49.5025C65.2361 47.8311 59.1278 46.0875 57.5453 45.0925C56.0045 44.1237 56.4528 41.4275 55.6253 39.845C53.7238 36.2085 41.6978 37.2675 33.2303 36.0025C30.8478 35.6466 27.0278 35.9175 25.6503 36C22.8248 36.1693 34.2578 39.0775 38.6028 39.585C42.9099 40.0881 46.5978 35.5975 50.6028 33.59C51.5506 33.115 52.5978 33.0875 52.5303 32.8375C52.1776 31.5312 45.8278 31.9175 39.7403 31.5875C37.9155 31.4886 38.7678 30.5975 39.6878 30.175C43.3847 28.4773 47.5978 27.7575 51.6853 28.08C52.819 28.1695 53.9278 28.9075 55.0178 28.9975C57.1045 29.1698 59.1078 26.4375 62.6753 22.9275C71.5578 14.1883 78.1078 21.2525 78.7828 21.0025C83.4737 19.2652 68.8078 19.2575 62.4753 17.0925C60.9665 16.5767 59.8078 16.2575 59.5428 16.5825C59.2778 16.9075 59.9378 17.8975 60.7728 18.49C61.6078 19.0825 62.5978 19.2475 62.5303 19.0025C61.3617 14.7608 55.6278 13.7575 53.7153 13.0875C50.0474 11.8025 47.1278 15.5775 45.6278 16.0825C42.6329 17.0908 45.7878 9.92753 44.7928 8.26253C44.3068 7.44915 43.1378 7.25753 42.2153 7.41753C41.2928 7.57753 40.4678 8.23753 41.0328 8.74253C45.4572 12.697 51.0978 11.5775 54.8578 13.0825C58.5595 14.5642 54.9478 4.42753 55.5303 3.50503C56.2201 2.41274 56.1178 9.05253 56.4478 13.225C56.7058 16.4871 61.4378 6.93753 63.6103 2.93253C64.1461 1.94486 64.6078 0.93753 64.7803 1.00503C63.6278 4.40753 60.6278 8.39753 57.8778 14.8925C57.2878 16.4075 56.9578 17.3975 56.1178 19.9175" stroke="#769F7C" stroke-width="2" stroke-linecap="round"/>
<path d="M50.1179 187.418C41.2029 187.418 22.1379 186.428 17.3029 185.835C16.1279 185.753 15.1379 185.588 13.3904 185.503C11.6429 185.418 9.16786 185.418 6.11786 186.418" stroke="#7C5E5E" stroke-width="2" stroke-linecap="round"/>
<path d="M36.1179 188.918C37.6079 189.578 40.9379 192.568 44.9329 196.733C46.2679 198.068 47.9179 199.718 49.1804 200.898C50.4429 202.078 51.2679 202.738 52.1179 203.418" stroke="#7C5E5E" stroke-width="2" stroke-linecap="round"/>
<path d="M52.6179 162.918C44.3629 162.918 26.6379 163.248 12.8329 163.17C10.5942 163.157 11.5979 162.428 12.6029 161.843C16.647 159.488 20.5979 157.758 24.6029 156.92C28.8745 156.027 33.5979 156.088 37.6029 154.923C41.6079 153.588 44.6079 152.423 46.6029 151.425C47.6079 150.923 48.5979 150.428 52.1179 149.418" stroke="#7C5E5E" stroke-width="2" stroke-linecap="round"/>
<path d="M13.1179 160.918C13.1179 162.738 12.7879 167.398 12.2029 171.568C12.4479 176.408 13.2829 179.408 13.5329 181.568C13.6179 182.738 13.6179 184.058 13.6179 185.418" stroke="#7C5E5E" stroke-width="2" stroke-linecap="round"/>
<rect x="25.6179" y="160.918" width="16" height="4" fill="#81AEF2"/>
<ellipse cx="31.1179" cy="185.418" rx="17.5" ry="1.5" fill="#2571FF"/>
<path d="M40.6179 174.918H50.6179V185.918H40.6179V174.918Z" fill="#F62929"/>
<path d="M43.0554 174.79L42.9775 174.297L43.0554 174.79ZM43.8054 174.759L43.6599 175.237L43.8054 174.759ZM44.9304 174.937L44.9236 175.437L44.9304 174.937ZM45.6804 174.782L45.5452 174.301L45.6804 174.782ZM46.0554 174.75L46.0006 175.247L46.0554 174.75ZM46.8054 174.899L47.0153 174.445L46.8054 174.899ZM47.1804 175.072L46.9704 175.526L47.1804 175.072ZM47.5554 175.039L47.8257 175.459L47.5554 175.039ZM47.9304 174.798L47.66 174.377L47.9304 174.798ZM48.6804 174.794L48.7818 174.304L48.6804 174.794ZM49.0554 174.784L48.9315 174.3L49.0554 174.784ZM49.4304 174.689L49.5543 175.173L49.4304 174.689ZM49.8054 174.73L50.0207 174.279L49.8054 174.73ZM50.1804 174.909L49.965 175.36L50.1804 174.909ZM50.4342 175.103L50.8566 174.836L50.4342 175.103ZM50.5667 175.313L50.1443 175.58L50.5667 175.313ZM50.6567 175.605L50.1606 175.668L50.6567 175.605ZM50.7039 175.98L51.2 175.918L50.7039 175.98ZM50.7731 176.355L50.2872 176.473L50.7731 176.355ZM50.8642 176.73L51.35 176.612L50.8642 176.73ZM50.78 177.105L51.1912 177.389L50.78 177.105ZM50.6503 177.293L50.2391 177.008L50.6503 177.293ZM50.5206 177.48L50.9318 177.764L50.5206 177.48ZM50.5197 177.855L50.9319 177.572L50.5197 177.855ZM50.6484 178.043L51.0606 177.76L50.6484 178.043ZM50.7771 178.23L50.3649 178.513L50.7771 178.23ZM50.8367 178.605L50.3676 178.432L50.8367 178.605ZM50.7676 178.793L51.2367 178.966L50.7676 178.793ZM50.6985 178.98L50.2293 178.807L50.6985 178.98ZM50.6689 179.355L51.1581 179.252L50.6689 179.355ZM50.7482 179.73L51.2374 179.627L50.7482 179.73ZM50.6828 180.105L51.119 180.349L50.6828 180.105ZM50.4728 180.48L50.0365 180.236L50.4728 180.48ZM50.5039 180.855L50.9086 180.561L50.5039 180.855ZM50.7761 181.23L50.3715 181.524L50.7761 181.23ZM50.8739 181.605L50.3841 181.505L50.8739 181.605ZM50.7973 181.98L51.2872 182.08L50.7973 181.98ZM50.7433 182.355L50.245 182.313L50.7433 182.355ZM50.7117 182.73L50.2135 182.688L50.7117 182.73ZM50.7082 183.105L50.2092 183.137L50.7082 183.105ZM50.7326 183.48L51.2315 183.448L50.7326 183.48ZM50.6536 183.855L50.2039 183.636L50.6536 183.855ZM50.4714 184.23L50.9211 184.449L50.4714 184.23ZM50.4473 184.605L49.9764 184.773L50.4473 184.605ZM50.5813 184.98L51.0521 184.812L50.5813 184.98ZM50.6539 185.355L51.1537 185.34L50.6539 185.355ZM50.6652 185.73L50.1654 185.745L50.6652 185.73ZM50.47 185.848L50.3058 186.32L50.47 185.848ZM50.0686 185.708L50.2328 185.236V185.236L50.0686 185.708ZM49.6804 185.749L49.9338 186.18L49.6804 185.749ZM49.3054 185.969L49.052 185.538L49.3054 185.969ZM48.9304 186.043L49.0245 185.552L48.9304 186.043ZM48.7429 186.007L48.6487 186.498L48.7429 186.007ZM48.5554 185.971L48.6495 185.48L48.5554 185.971ZM48.1804 185.894L48.2893 185.406L48.1804 185.894ZM47.8054 185.81L47.6964 186.298L47.8054 185.81ZM47.4304 185.827L47.2797 185.351L47.4304 185.827ZM47.0554 185.946L47.2061 186.423L47.0554 185.946ZM46.6804 186.01L46.6936 186.51L46.6804 186.01ZM46.3054 186.02L46.2921 185.52L46.3054 186.02ZM45.9304 185.925L45.6961 186.367L45.9304 185.925ZM45.5554 185.727L45.7897 185.285L45.5554 185.727ZM45.1804 185.76L44.8916 185.352L45.1804 185.76ZM44.9929 185.892L44.7041 185.484L44.9929 185.892ZM44.8054 186.025L45.0942 186.433L44.8054 186.025ZM44.4304 186.037L44.1596 186.457L44.4304 186.037ZM44.0554 185.795L44.3261 185.375L44.0554 185.795ZM43.6804 185.694L43.6304 185.196L43.6804 185.694ZM43.3054 185.731L43.3553 186.229L43.3054 185.731ZM42.9304 185.862L43.1866 186.291L42.9304 185.862ZM42.5554 186.086L42.2992 185.656L42.5554 186.086ZM42.1804 186.195L42.1734 186.695L42.1804 186.195ZM41.8054 186.19L41.8123 185.69L41.8054 186.19ZM41.4304 186.08L41.6784 185.646L41.4304 186.08ZM41.0554 185.866L40.8073 186.3L41.0554 185.866ZM40.8038 185.673L41.2035 185.373L40.8038 185.673ZM40.6912 183.73L40.1929 183.689L40.6912 183.73ZM40.7621 182.98L40.2664 182.915L40.7621 182.98ZM40.8117 182.605L40.316 182.54L40.8117 182.605ZM40.7386 182.23L40.2953 182.461L40.7386 182.23ZM40.5431 181.855L40.9864 181.624L40.5431 181.855ZM40.5298 180.73L41.0065 180.579L40.5298 180.73ZM40.4111 180.355L39.9344 180.506L40.4111 180.355ZM40.6043 179.605L40.1481 179.4L40.6043 179.605ZM40.4914 177.355L40.0004 177.449L40.4914 177.355ZM40.9929 174.857L41.0728 175.35L41.2603 175.32L41.1804 174.826L41.1004 174.333L40.9129 174.363L40.9929 174.857ZM41.1804 174.826L41.2603 175.32C41.2878 175.316 41.3195 175.317 41.365 175.336L41.5554 174.873L41.7457 174.411C41.5412 174.327 41.3229 174.297 41.1004 174.333L41.1804 174.826ZM41.5554 174.873L41.365 175.336L41.5525 175.413L41.7429 174.95L41.9332 174.488L41.7457 174.411L41.5554 174.873ZM41.7429 174.95L41.5525 175.413L41.74 175.49L41.9304 175.028L42.1207 174.565L41.9332 174.488L41.7429 174.95ZM41.9304 175.028L41.74 175.49C41.9811 175.589 42.2376 175.594 42.4829 175.501L42.3054 175.034L42.1278 174.566C42.1236 174.568 42.1218 174.568 42.1221 174.568C42.1225 174.568 42.1239 174.568 42.1258 174.568C42.1278 174.568 42.1289 174.568 42.1287 174.568C42.1284 174.568 42.1258 174.567 42.1207 174.565L41.9304 175.028ZM42.3054 175.034L42.4829 175.501L42.6704 175.43L42.4929 174.962L42.3153 174.495L42.1278 174.566L42.3054 175.034ZM42.4929 174.962L42.6704 175.43L42.8579 175.359L42.6804 174.891L42.5028 174.424L42.3153 174.495L42.4929 174.962ZM42.6804 174.891L42.8579 175.359C42.9525 175.323 43.0441 175.298 43.1332 175.284L43.0554 174.79L42.9775 174.297C42.8166 174.322 42.6582 174.365 42.5028 174.424L42.6804 174.891ZM43.0554 174.79L43.1332 175.284L43.3207 175.255L43.2429 174.761L43.165 174.267L42.9775 174.297L43.0554 174.79ZM43.2429 174.761L43.3207 175.255L43.5082 175.225L43.4304 174.731L43.3525 174.237L43.165 174.267L43.2429 174.761ZM43.4304 174.731L43.5082 175.225C43.5561 175.218 43.6048 175.22 43.6599 175.237L43.8054 174.759L43.9508 174.28C43.7559 174.221 43.5546 174.206 43.3525 174.237L43.4304 174.731ZM43.8054 174.759L43.6599 175.237L43.8474 175.294L43.9929 174.816L44.1383 174.337L43.9508 174.28L43.8054 174.759ZM43.9929 174.816L43.8474 175.294L44.0349 175.351L44.1804 174.873L44.3258 174.394L44.1383 174.337L43.9929 174.816ZM44.1804 174.873L44.0349 175.351C44.2028 175.402 44.3745 175.43 44.5486 175.432L44.5554 174.932L44.5621 174.432C44.4862 174.431 44.4079 174.419 44.3258 174.394L44.1804 174.873ZM44.5554 174.932L44.5486 175.432L44.7361 175.435L44.7429 174.935L44.7496 174.435L44.5621 174.432L44.5554 174.932ZM44.7429 174.935L44.7361 175.435L44.9236 175.437L44.9304 174.937L44.9371 174.437L44.7496 174.435L44.7429 174.935ZM44.9304 174.937L44.9236 175.437C45.0984 175.44 45.2712 175.416 45.4405 175.369L45.3054 174.887L45.1702 174.406C45.0896 174.429 45.0123 174.438 44.9371 174.437L44.9304 174.937ZM45.3054 174.887L45.4405 175.369L45.628 175.316L45.4929 174.835L45.3577 174.353L45.1702 174.406L45.3054 174.887ZM45.4929 174.835L45.628 175.316L45.8155 175.263L45.6804 174.782L45.5452 174.301L45.3577 174.353L45.4929 174.835ZM45.6804 174.782L45.8155 175.263C45.8808 175.245 45.9414 175.24 46.0006 175.247L46.0554 174.75L46.1102 174.253C45.9193 174.232 45.7299 174.249 45.5452 174.301L45.6804 174.782ZM46.0554 174.75L46.0006 175.247L46.1881 175.268L46.2429 174.771L46.2977 174.274L46.1102 174.253L46.0554 174.75ZM46.2429 174.771L46.1881 175.268L46.3756 175.288L46.4304 174.791L46.4852 174.294L46.2977 174.274L46.2429 174.771ZM46.4304 174.791L46.3756 175.288C46.442 175.296 46.5148 175.315 46.5954 175.353L46.8054 174.899L47.0153 174.445C46.8459 174.367 46.6687 174.315 46.4852 174.294L46.4304 174.791ZM46.8054 174.899L46.5954 175.353L46.7829 175.439L46.9929 174.986L47.2028 174.532L47.0153 174.445L46.8054 174.899ZM46.9929 174.986L46.7829 175.439L46.9704 175.526L47.1804 175.072L47.3903 174.619L47.2028 174.532L46.9929 174.986ZM47.1804 175.072L46.9704 175.526C47.2647 175.662 47.5704 175.623 47.8257 175.459L47.5554 175.039L47.285 174.618C47.2779 174.623 47.2917 174.612 47.3231 174.609C47.3563 174.606 47.3812 174.614 47.3903 174.619L47.1804 175.072ZM47.5554 175.039L47.8257 175.459L48.0132 175.339L47.7429 174.918L47.4725 174.497L47.285 174.618L47.5554 175.039ZM47.7429 174.918L48.0132 175.339L48.2007 175.218L47.9304 174.798L47.66 174.377L47.4725 174.497L47.7429 174.918ZM47.9304 174.798L48.2007 175.218C48.221 175.205 48.2286 175.205 48.2243 175.205C48.2222 175.206 48.2187 175.206 48.2143 175.206C48.2098 175.206 48.2062 175.206 48.204 175.206L48.3054 174.716L48.4068 174.226C48.1326 174.17 47.8757 174.238 47.66 174.377L47.9304 174.798ZM48.3054 174.716L48.204 175.206L48.3915 175.244L48.4929 174.755L48.5943 174.265L48.4068 174.226L48.3054 174.716ZM48.4929 174.755L48.3915 175.244L48.579 175.283L48.6804 174.794L48.7818 174.304L48.5943 174.265L48.4929 174.755ZM48.6804 174.794L48.579 175.283C48.7793 175.325 48.9814 175.319 49.1793 175.269L49.0554 174.784L48.9315 174.3C48.8794 174.313 48.8314 174.314 48.7818 174.304L48.6804 174.794ZM49.0554 174.784L49.1793 175.269L49.3668 175.221L49.2429 174.736L49.119 174.252L48.9315 174.3L49.0554 174.784ZM49.2429 174.736L49.3668 175.221L49.5543 175.173L49.4304 174.689L49.3065 174.204L49.119 174.252L49.2429 174.736ZM49.4304 174.689L49.5543 175.173C49.5576 175.172 49.5595 175.172 49.5603 175.172C49.561 175.172 49.5617 175.172 49.5628 175.172C49.5643 175.172 49.5729 175.173 49.59 175.181L49.8054 174.73L50.0207 174.279C49.7984 174.173 49.5536 174.141 49.3065 174.204L49.4304 174.689ZM49.8054 174.73L49.59 175.181L49.7775 175.271L49.9929 174.82L50.2082 174.368L50.0207 174.279L49.8054 174.73ZM49.9929 174.82L49.7775 175.271L49.965 175.36L50.1804 174.909L50.3957 174.458L50.2082 174.368L49.9929 174.82ZM50.1804 174.909L49.965 175.36C50.005 175.379 50.0257 175.393 50.0337 175.399C50.042 175.406 50.0288 175.398 50.0117 175.371L50.4342 175.103L50.8566 174.836C50.7385 174.649 50.5545 174.534 50.3957 174.458L50.1804 174.909ZM50.4342 175.103L50.0117 175.371L50.078 175.475L50.5005 175.208L50.9229 174.941L50.8566 174.836L50.4342 175.103ZM50.5005 175.208L50.078 175.475L50.1443 175.58L50.5667 175.313L50.9892 175.045L50.9229 174.941L50.5005 175.208ZM50.5667 175.313L50.1443 175.58C50.1379 175.57 50.1396 175.57 50.1445 175.585C50.1493 175.601 50.1555 175.627 50.1606 175.668L50.6567 175.605L51.1527 175.543C51.1322 175.379 51.0879 175.201 50.9892 175.045L50.5667 175.313ZM50.6567 175.605L50.1606 175.668L50.1842 175.855L50.6803 175.793L51.1764 175.73L51.1527 175.543L50.6567 175.605ZM50.6803 175.793L50.1842 175.855L50.2078 176.043L50.7039 175.98L51.2 175.918L51.1764 175.73L50.6803 175.793ZM50.7039 175.98L50.2078 176.043C50.226 176.187 50.2525 176.33 50.2872 176.473L50.7731 176.355L51.259 176.237C51.2329 176.13 51.2133 176.023 51.2 175.918L50.7039 175.98ZM50.7731 176.355L50.2872 176.473L50.3328 176.661L50.8186 176.543L51.3045 176.425L51.259 176.237L50.7731 176.355ZM50.8186 176.543L50.3328 176.661L50.3783 176.848L50.8642 176.73L51.35 176.612L51.3045 176.425L50.8186 176.543ZM50.8642 176.73L50.3783 176.848C50.3771 176.843 50.3761 176.836 50.376 176.828C50.3759 176.82 50.3769 176.813 50.378 176.808C50.3804 176.797 50.3822 176.801 50.3688 176.821L50.78 177.105L51.1912 177.389C51.3427 177.17 51.4203 176.901 51.35 176.612L50.8642 176.73ZM50.78 177.105L50.3688 176.821L50.2391 177.008L50.6503 177.293L51.0615 177.577L51.1912 177.389L50.78 177.105ZM50.6503 177.293L50.2391 177.008L50.1094 177.196L50.5206 177.48L50.9318 177.764L51.0615 177.577L50.6503 177.293ZM50.5206 177.48L50.1094 177.196C50.0212 177.323 49.956 177.482 49.9556 177.666C49.9551 177.85 50.0195 178.01 50.1075 178.138L50.5197 177.855L50.9319 177.572C50.934 177.575 50.9557 177.61 50.9555 177.669C50.9554 177.728 50.9336 177.762 50.9318 177.764L50.5206 177.48ZM50.5197 177.855L50.1075 178.138L50.2362 178.326L50.6484 178.043L51.0606 177.76L50.9319 177.572L50.5197 177.855ZM50.6484 178.043L50.2362 178.326L50.3649 178.513L50.7771 178.23L51.1893 177.947L51.0606 177.76L50.6484 178.043ZM50.7771 178.23L50.3649 178.513C50.374 178.526 50.3664 178.52 50.3626 178.496C50.3607 178.484 50.3603 178.472 50.3617 178.459C50.363 178.447 50.3656 178.437 50.3676 178.432L50.8367 178.605L51.3059 178.778C51.4165 178.478 51.3523 178.184 51.1893 177.947L50.7771 178.23ZM50.8367 178.605L50.3676 178.432L50.2985 178.62L50.7676 178.793L51.2367 178.966L51.3059 178.778L50.8367 178.605ZM50.7676 178.793L50.2985 178.62L50.2293 178.807L50.6985 178.98L51.1676 179.153L51.2367 178.966L50.7676 178.793ZM50.6985 178.98L50.2293 178.807C50.1521 179.016 50.133 179.237 50.1797 179.458L50.6689 179.355L51.1581 179.252C51.1521 179.223 51.1526 179.194 51.1676 179.153L50.6985 178.98ZM50.6689 179.355L50.1797 179.458L50.2193 179.646L50.7085 179.543L51.1977 179.439L51.1581 179.252L50.6689 179.355ZM50.7085 179.543L50.2193 179.646L50.259 179.833L50.7482 179.73L51.2374 179.627L51.1977 179.439L50.7085 179.543ZM50.7482 179.73L50.259 179.833C50.2592 179.834 50.259 179.834 50.259 179.833C50.259 179.832 50.2591 179.831 50.259 179.832C50.259 179.832 50.2575 179.841 50.2465 179.861L50.6828 180.105L51.119 180.349C51.2405 180.132 51.2919 179.885 51.2374 179.627L50.7482 179.73ZM50.6828 180.105L50.2465 179.861L50.1415 180.048L50.5778 180.293L51.0141 180.537L51.119 180.349L50.6828 180.105ZM50.5778 180.293L50.1415 180.048L50.0365 180.236L50.4728 180.48L50.9091 180.724L51.0141 180.537L50.5778 180.293ZM50.4728 180.48L50.0365 180.236C49.96 180.372 49.9153 180.533 49.9298 180.709C49.9441 180.881 50.0126 181.029 50.0993 181.149L50.5039 180.855L50.9086 180.561C50.9045 180.556 50.9224 180.579 50.9264 180.626C50.9306 180.677 50.9156 180.713 50.9091 180.724L50.4728 180.48ZM50.5039 180.855L50.0993 181.149L50.2354 181.336L50.64 181.043L51.0447 180.749L50.9086 180.561L50.5039 180.855ZM50.64 181.043L50.2354 181.336L50.3715 181.524L50.7761 181.23L51.1808 180.936L51.0447 180.749L50.64 181.043ZM50.7761 181.23L50.3715 181.524C50.3873 181.545 50.387 181.552 50.3848 181.544C50.3837 181.54 50.3826 181.533 50.3824 181.525C50.3822 181.518 50.3829 181.51 50.3841 181.505L50.8739 181.605L51.3638 181.705C51.4233 181.414 51.3351 181.149 51.1808 180.936L50.7761 181.23ZM50.8739 181.605L50.3841 181.505L50.3458 181.692L50.8356 181.793L51.3255 181.893L51.3638 181.705L50.8739 181.605ZM50.8356 181.793L50.3458 181.692L50.3074 181.88L50.7973 181.98L51.2872 182.08L51.3255 181.893L50.8356 181.793ZM50.7973 181.98L50.3074 181.88C50.278 182.024 50.2572 182.168 50.245 182.313L50.7433 182.355L51.2415 182.397C51.2503 182.292 51.2655 182.186 51.2872 182.08L50.7973 181.98ZM50.7433 182.355L50.245 182.313L50.2293 182.501L50.7275 182.543L51.2257 182.584L51.2415 182.397L50.7433 182.355ZM50.7275 182.543L50.2293 182.501L50.2135 182.688L50.7117 182.73L51.21 182.772L51.2257 182.584L50.7275 182.543ZM50.7117 182.73L50.2135 182.688C50.2009 182.838 50.1995 182.988 50.2092 183.137L50.7082 183.105L51.2071 183.073C51.2006 182.972 51.2015 182.872 51.21 182.772L50.7117 182.73ZM50.7082 183.105L50.2092 183.137L50.2214 183.325L50.7204 183.293L51.2193 183.26L51.2071 183.073L50.7082 183.105ZM50.7204 183.293L50.2214 183.325L50.2336 183.512L50.7326 183.48L51.2315 183.448L51.2193 183.26L50.7204 183.293ZM50.7326 183.48L50.2336 183.512C50.2355 183.542 50.231 183.581 50.2039 183.636L50.6536 183.855L51.1033 184.074C51.1977 183.879 51.2459 183.668 51.2315 183.448L50.7326 183.48ZM50.6536 183.855L50.2039 183.636L50.1128 183.824L50.5625 184.043L51.0122 184.261L51.1033 184.074L50.6536 183.855ZM50.5625 184.043L50.1128 183.824L50.0217 184.011L50.4714 184.23L50.9211 184.449L51.0122 184.261L50.5625 184.043ZM50.4714 184.23L50.0217 184.011C49.9053 184.251 49.8842 184.515 49.9764 184.773L50.4473 184.605L50.9181 184.437C50.9175 184.435 50.9179 184.436 50.9183 184.439C50.9188 184.442 50.919 184.446 50.9187 184.45C50.9185 184.454 50.9179 184.456 50.9178 184.456C50.9177 184.457 50.9183 184.454 50.9211 184.449L50.4714 184.23ZM50.4473 184.605L49.9764 184.773L50.0435 184.961L50.5143 184.793L50.9851 184.624L50.9181 184.437L50.4473 184.605ZM50.5143 184.793L50.0435 184.961L50.1105 185.148L50.5813 184.98L51.0521 184.812L50.9851 184.624L50.5143 184.793ZM50.5813 184.98L50.1105 185.148C50.1386 185.227 50.1521 185.3 50.1542 185.37L50.6539 185.355L51.1537 185.34C51.1483 185.16 51.1134 184.983 51.0521 184.812L50.5813 184.98ZM50.6539 185.355L50.1542 185.37L50.1598 185.557L50.6596 185.543L51.1593 185.528L51.1537 185.34L50.6539 185.355ZM50.6596 185.543L50.1598 185.557L50.1654 185.745L50.6652 185.73L51.1649 185.715L51.1593 185.528L50.6596 185.543ZM50.6652 185.73L50.1654 185.745C50.1651 185.737 50.1642 185.693 50.1866 185.633C50.2121 185.565 50.266 185.482 50.3609 185.425C50.4502 185.371 50.5332 185.365 50.5759 185.367C50.6169 185.368 50.6389 185.377 50.6343 185.375L50.47 185.848L50.3058 186.32C50.4008 186.353 50.6424 186.423 50.8774 186.281C51.1467 186.119 51.1685 185.836 51.1649 185.715L50.6652 185.73ZM50.47 185.848L50.6343 185.375L50.4336 185.306L50.2693 185.778L50.1051 186.25L50.3058 186.32L50.47 185.848ZM50.2693 185.778L50.4336 185.306L50.2328 185.236L50.0686 185.708L49.9043 186.18L50.1051 186.25L50.2693 185.778ZM50.0686 185.708L50.2328 185.236C49.9568 185.14 49.675 185.172 49.427 185.317L49.6804 185.749L49.9338 186.18C49.9382 186.177 49.9391 186.177 49.9367 186.178C49.934 186.179 49.9293 186.18 49.9229 186.181C49.9166 186.181 49.9109 186.181 49.9067 186.181C49.9026 186.18 49.9017 186.179 49.9043 186.18L50.0686 185.708ZM49.6804 185.749L49.427 185.317L49.2395 185.428L49.4929 185.859L49.7463 186.29L49.9338 186.18L49.6804 185.749ZM49.4929 185.859L49.2395 185.428L49.052 185.538L49.3054 185.969L49.5588 186.4L49.7463 186.29L49.4929 185.859ZM49.3054 185.969L49.052 185.538C49.0312 185.55 49.0211 185.552 49.0207 185.552C49.0203 185.552 49.021 185.552 49.0225 185.552C49.024 185.552 49.0248 185.552 49.0245 185.552L48.9304 186.043L48.8362 186.534C49.0971 186.584 49.3446 186.526 49.5588 186.4L49.3054 185.969ZM48.9304 186.043L49.0245 185.552L48.837 185.516L48.7429 186.007L48.6487 186.498L48.8362 186.534L48.9304 186.043ZM48.7429 186.007L48.837 185.516L48.6495 185.48L48.5554 185.971L48.4612 186.462L48.6487 186.498L48.7429 186.007ZM48.5554 185.971L48.6495 185.48C48.5295 185.457 48.4094 185.432 48.2893 185.406L48.1804 185.894L48.0714 186.382C48.2013 186.411 48.3313 186.438 48.4612 186.462L48.5554 185.971ZM48.1804 185.894L48.2893 185.406L48.1018 185.364L47.9929 185.852L47.8839 186.34L48.0714 186.382L48.1804 185.894ZM47.9929 185.852L48.1018 185.364L47.9143 185.322L47.8054 185.81L47.6964 186.298L47.8839 186.34L47.9929 185.852ZM47.8054 185.81L47.9143 185.322C47.7012 185.274 47.4866 185.285 47.2797 185.351L47.4304 185.827L47.5811 186.304C47.6241 186.29 47.6595 186.29 47.6964 186.298L47.8054 185.81ZM47.4304 185.827L47.2797 185.351L47.0922 185.41L47.2429 185.887L47.3936 186.363L47.5811 186.304L47.4304 185.827ZM47.2429 185.887L47.0922 185.41L46.9047 185.469L47.0554 185.946L47.2061 186.423L47.3936 186.363L47.2429 185.887ZM47.0554 185.946L46.9047 185.469C46.822 185.495 46.7433 185.508 46.6671 185.51L46.6804 186.01L46.6936 186.51C46.8675 186.505 47.0387 186.475 47.2061 186.423L47.0554 185.946ZM46.6804 186.01L46.6671 185.51L46.4796 185.515L46.4929 186.015L46.5061 186.515L46.6936 186.51L46.6804 186.01ZM46.4929 186.015L46.4796 185.515L46.2921 185.52L46.3054 186.02L46.3186 186.52L46.5061 186.515L46.4929 186.015ZM46.3054 186.02L46.2921 185.52C46.2641 185.521 46.2237 185.515 46.1647 185.484L45.9304 185.925L45.6961 186.367C45.887 186.468 46.0966 186.526 46.3186 186.52L46.3054 186.02ZM45.9304 185.925L46.1647 185.484L45.9772 185.384L45.7429 185.826L45.5086 186.268L45.6961 186.367L45.9304 185.925ZM45.7429 185.826L45.9772 185.384L45.7897 185.285L45.5554 185.727L45.3211 186.168L45.5086 186.268L45.7429 185.826ZM45.5554 185.727L45.7897 185.285C45.653 185.212 45.4945 185.172 45.3237 185.187C45.1557 185.202 45.0104 185.268 44.8916 185.352L45.1804 185.76L45.4692 186.168C45.4753 186.164 45.4551 186.179 45.412 186.183C45.3662 186.187 45.3327 186.174 45.3211 186.168L45.5554 185.727ZM45.1804 185.76L44.8916 185.352L44.7041 185.484L44.9929 185.892L45.2817 186.301L45.4692 186.168L45.1804 185.76ZM44.9929 185.892L44.7041 185.484L44.5166 185.617L44.8054 186.025L45.0942 186.433L45.2817 186.301L44.9929 185.892ZM44.8054 186.025L44.5166 185.617C44.516 185.617 44.5465 185.596 44.602 185.595C44.6588 185.593 44.6948 185.613 44.7011 185.617L44.4304 186.037L44.1596 186.457C44.2909 186.542 44.4519 186.6 44.6337 186.594C44.8142 186.588 44.9697 186.521 45.0942 186.433L44.8054 186.025ZM44.4304 186.037L44.7011 185.617L44.5136 185.496L44.2429 185.916L43.9721 186.337L44.1596 186.457L44.4304 186.037ZM44.2429 185.916L44.5136 185.496L44.3261 185.375L44.0554 185.795L43.7846 186.216L43.9721 186.337L44.2429 185.916ZM44.0554 185.795L44.3261 185.375C44.1242 185.245 43.8877 185.17 43.6304 185.196L43.6804 185.694L43.7303 186.191C43.7308 186.191 43.7311 186.191 43.7314 186.191C43.7318 186.191 43.7335 186.191 43.7367 186.192C43.7431 186.194 43.759 186.199 43.7846 186.216L44.0554 185.795ZM43.6804 185.694L43.6304 185.196L43.4429 185.215L43.4929 185.712L43.5428 186.21L43.7303 186.191L43.6804 185.694ZM43.4929 185.712L43.4429 185.215L43.2554 185.234L43.3054 185.731L43.3553 186.229L43.5428 186.21L43.4929 185.712ZM43.3054 185.731L43.2554 185.234C43.0468 185.255 42.8521 185.326 42.6742 185.433L42.9304 185.862L43.1866 186.291C43.2586 186.248 43.3139 186.233 43.3553 186.229L43.3054 185.731ZM42.9304 185.862L42.6742 185.433L42.4867 185.544L42.7429 185.974L42.9991 186.403L43.1866 186.291L42.9304 185.862ZM42.7429 185.974L42.4867 185.544L42.2992 185.656L42.5554 186.086L42.8116 186.515L42.9991 186.403L42.7429 185.974ZM42.5554 186.086L42.2992 185.656C42.2404 185.691 42.2054 185.695 42.1873 185.695L42.1804 186.195L42.1734 186.695C42.4053 186.698 42.6203 186.629 42.8116 186.515L42.5554 186.086ZM42.1804 186.195L42.1873 185.695L41.9998 185.692L41.9929 186.192L41.9859 186.692L42.1734 186.695L42.1804 186.195ZM41.9929 186.192L41.9998 185.692L41.8123 185.69L41.8054 186.19L41.7984 186.69L41.9859 186.692L41.9929 186.192ZM41.8054 186.19L41.8123 185.69C41.784 185.689 41.7412 185.682 41.6784 185.646L41.4304 186.08L41.1823 186.514C41.3695 186.621 41.5767 186.687 41.7984 186.69L41.8054 186.19ZM41.4304 186.08L41.6784 185.646L41.4909 185.539L41.2429 185.973L40.9948 186.407L41.1823 186.514L41.4304 186.08ZM41.2429 185.973L41.4909 185.539L41.3034 185.432L41.0554 185.866L40.8073 186.3L40.9948 186.407L41.2429 185.973ZM41.0554 185.866L41.3034 185.432C41.2539 185.403 41.2216 185.382 41.2025 185.367C41.198 185.363 41.1947 185.361 41.1924 185.359C41.19 185.357 41.189 185.356 41.189 185.356C41.189 185.356 41.1894 185.356 41.19 185.357C41.1906 185.357 41.1915 185.358 41.1928 185.36C41.1951 185.362 41.1989 185.367 41.2035 185.373L40.8038 185.673L40.4041 185.974C40.5114 186.117 40.6714 186.222 40.8073 186.3L41.0554 185.866ZM40.8038 185.673L41.2035 185.373L41.1395 185.288L40.7397 185.588L40.34 185.888L40.4041 185.974L40.8038 185.673ZM40.7397 185.588L41.1395 185.288L41.0754 185.202L40.6757 185.503L40.2759 185.803L40.34 185.888L40.7397 185.588ZM40.6757 185.503L41.0754 185.202C41.0904 185.222 41.0995 185.24 41.1046 185.251C41.1097 185.263 41.1116 185.27 41.1118 185.271C41.112 185.272 41.1111 185.268 41.11 185.259C41.1089 185.25 41.1079 185.237 41.1076 185.22L40.6077 185.23L40.1078 185.24C40.1111 185.4 40.1382 185.62 40.2759 185.803L40.6757 185.503ZM40.6077 185.23L41.1076 185.22L41.1036 185.032L40.6038 185.043L40.1039 185.053L40.1078 185.24L40.6077 185.23ZM40.6038 185.043L41.1036 185.032L41.0997 184.845L40.5998 184.855L40.1 184.865L40.1039 185.053L40.6038 185.043ZM40.5998 184.855L41.0997 184.845C41.0976 184.741 41.102 184.637 41.1131 184.533L40.6159 184.48L40.1187 184.427C40.1032 184.573 40.0969 184.719 40.1 184.865L40.5998 184.855ZM40.6159 184.48L41.1131 184.533L41.1331 184.346L40.6359 184.293L40.1387 184.24L40.1187 184.427L40.6159 184.48ZM40.6359 184.293L41.1331 184.346L41.1531 184.158L40.6559 184.105L40.1587 184.052L40.1387 184.24L40.6359 184.293ZM40.6559 184.105L41.1531 184.158C41.1668 184.029 41.179 183.9 41.1895 183.771L40.6912 183.73L40.1929 183.689C40.183 183.81 40.1716 183.931 40.1587 184.052L40.6559 184.105ZM40.6912 183.73L41.1895 183.771L41.2049 183.583L40.7066 183.543L40.2083 183.502L40.1929 183.689L40.6912 183.73ZM40.7066 183.543L41.2049 183.583L41.2203 183.396L40.722 183.355L40.2236 183.314L40.2083 183.502L40.7066 183.543ZM40.722 183.355L41.2203 183.396C41.2298 183.279 41.2423 183.162 41.2578 183.046L40.7621 182.98L40.2664 182.915C40.2488 183.048 40.2345 183.181 40.2236 183.314L40.722 183.355ZM40.7621 182.98L41.2578 183.046L41.2826 182.858L40.7869 182.793L40.2912 182.727L40.2664 182.915L40.7621 182.98ZM40.7869 182.793L41.2826 182.858L41.3073 182.671L40.8117 182.605L40.316 182.54L40.2912 182.727L40.7869 182.793ZM40.8117 182.605L41.3073 182.671C41.3389 182.432 41.2889 182.204 41.182 181.999L40.7386 182.23L40.2953 182.461C40.3188 182.506 40.3174 182.528 40.316 182.54L40.8117 182.605ZM40.7386 182.23L41.182 181.999L41.0842 181.811L40.6409 182.043L40.1975 182.274L40.2953 182.461L40.7386 182.23ZM40.6409 182.043L41.0842 181.811L40.9864 181.624L40.5431 181.855L40.0997 182.086L40.1975 182.274L40.6409 182.043ZM40.5431 181.855L40.9864 181.624C40.9674 181.587 40.9719 181.576 40.9723 181.574L40.4813 181.48L39.9902 181.386C39.9427 181.634 39.9884 181.873 40.0997 182.086L40.5431 181.855ZM40.4813 181.48L40.9723 181.574L41.0083 181.387L40.5172 181.293L40.0262 181.198L39.9902 181.386L40.4813 181.48ZM40.5172 181.293L41.0083 181.387L41.0442 181.199L40.5532 181.105L40.0621 181.011L40.0262 181.198L40.5172 181.293ZM40.5532 181.105L41.0442 181.199C41.0843 180.99 41.0703 180.781 41.0065 180.579L40.5298 180.73L40.0531 180.881C40.0684 180.929 40.07 180.97 40.0621 181.011L40.5532 181.105ZM40.5298 180.73L41.0065 180.579L40.9471 180.392L40.4704 180.543L39.9937 180.693L40.0531 180.881L40.5298 180.73ZM40.4704 180.543L40.9471 180.392L40.8878 180.204L40.4111 180.355L39.9344 180.506L39.9937 180.693L40.4704 180.543ZM40.4111 180.355L40.8878 180.204C40.8872 180.202 40.8869 180.201 40.8867 180.2C40.8865 180.2 40.8865 180.199 40.8865 180.199C40.8865 180.199 40.8865 180.199 40.8865 180.2C40.8865 180.2 40.8865 180.2 40.8865 180.201C40.8865 180.201 40.8864 180.201 40.887 180.199C40.8875 180.196 40.8889 180.192 40.892 180.185L40.4359 179.98L39.9798 179.775C39.8758 180.007 39.856 180.258 39.9344 180.506L40.4111 180.355ZM40.4359 179.98L40.892 180.185L40.9762 179.997L40.5201 179.793L40.0639 179.588L39.9798 179.775L40.4359 179.98ZM40.5201 179.793L40.9762 179.997L41.0604 179.81L40.6043 179.605L40.1481 179.4L40.0639 179.588L40.5201 179.793ZM40.6043 179.605L41.0604 179.81C41.1497 179.611 41.1892 179.396 41.1645 179.175L40.6676 179.23L40.1707 179.285C40.1738 179.314 40.171 179.349 40.1481 179.4L40.6043 179.605ZM40.6676 179.23L41.1645 179.175L41.1437 178.987L40.6467 179.043L40.1498 179.098L40.1707 179.285L40.6676 179.23ZM40.6467 179.043L41.1437 178.987L41.1228 178.8L40.6259 178.855L40.1289 178.91L40.1498 179.098L40.6467 179.043ZM40.6259 178.855L41.1228 178.8C41.1108 178.692 41.1044 178.584 41.1036 178.476L40.6037 178.48L40.1037 178.484C40.1047 178.626 40.1131 178.768 40.1289 178.91L40.6259 178.855ZM40.6037 178.48L41.1036 178.476L41.1023 178.289L40.6023 178.293L40.1023 178.296L40.1037 178.484L40.6037 178.48ZM40.6023 178.293L41.1023 178.289L41.1009 178.101L40.6009 178.105L40.1009 178.109L40.1023 178.296L40.6023 178.293ZM40.6009 178.105L41.1009 178.101C41.0998 177.945 41.0842 177.79 41.0545 177.636L40.5635 177.73L40.0725 177.824C40.0909 177.92 40.1003 178.015 40.1009 178.109L40.6009 178.105ZM40.5635 177.73L41.0545 177.636L41.0185 177.448L40.5275 177.543L40.0365 177.637L40.0725 177.824L40.5635 177.73ZM40.5275 177.543L41.0185 177.448L40.9824 177.261L40.4914 177.355L40.0004 177.449L40.0365 177.637L40.5275 177.543ZM40.4914 177.355L40.9824 177.261C40.9667 177.179 40.9621 177.098 40.9683 177.018L40.4697 176.98L39.9712 176.942C39.9582 177.112 39.9681 177.281 40.0004 177.449L40.4914 177.355ZM40.4697 176.98L40.9683 177.018L40.9826 176.831L40.484 176.793L39.9855 176.754L39.9712 176.942L40.4697 176.98ZM40.484 176.793L40.9826 176.831L40.9969 176.643L40.4983 176.605L39.9998 176.567L39.9855 176.754L40.484 176.793ZM40.4983 176.605L40.9969 176.643C41.0064 176.519 41.0161 176.395 41.0262 176.27L40.5278 176.23L40.0294 176.19C40.0193 176.316 40.0094 176.441 39.9998 176.567L40.4983 176.605ZM40.5278 176.23L41.0262 176.27L41.0413 176.083L40.5429 176.043L40.0445 176.002L40.0294 176.19L40.5278 176.23ZM40.5429 176.043L41.0413 176.083L41.0564 175.895L40.558 175.855L40.0596 175.815L40.0445 176.002L40.5429 176.043ZM40.558 175.855L41.0564 175.895C41.0669 175.765 41.0752 175.634 41.0813 175.503L40.5818 175.48L40.0824 175.457C40.0768 175.576 40.0693 175.696 40.0596 175.815L40.558 175.855ZM40.5818 175.48L41.0813 175.503L41.09 175.316L40.5905 175.293L40.0911 175.269L40.0824 175.457L40.5818 175.48ZM40.5905 175.293L41.09 175.316L41.0987 175.128L40.5992 175.105L40.0997 175.082L40.0911 175.269L40.5905 175.293ZM40.5992 175.105L41.0987 175.128C41.1015 175.066 41.1038 175.022 41.1055 174.994C41.1059 174.987 41.1062 174.982 41.1065 174.978C41.1068 174.974 41.1069 174.972 41.1069 174.972C41.1069 174.972 41.1068 174.974 41.1066 174.976C41.1064 174.978 41.1058 174.983 41.1049 174.989C41.1045 174.993 41.1018 175.012 41.0956 175.037C41.0935 175.046 41.0847 175.083 41.0648 175.126C41.0559 175.145 41.0318 175.196 40.9852 175.248C40.9438 175.295 40.8186 175.418 40.6104 175.418V174.918V174.418C40.4022 174.418 40.2768 174.54 40.2354 174.587C40.1888 174.64 40.1646 174.69 40.1556 174.71C40.1357 174.753 40.1268 174.79 40.1245 174.799C40.1181 174.825 40.1152 174.846 40.1145 174.851C40.1123 174.867 40.1111 174.88 40.1106 174.886C40.1093 174.901 40.1082 174.918 40.1072 174.935C40.1052 174.969 40.1027 175.019 40.0997 175.082L40.5992 175.105ZM40.6104 174.918V175.418H40.6129V174.918V174.418H40.6104V174.918ZM40.6129 174.918V175.418H40.6154V174.918V174.418H40.6129V174.918ZM40.6154 174.918V175.418C40.6389 175.418 40.6576 175.416 40.6594 175.416C40.6655 175.415 40.6703 175.415 40.6727 175.414C40.6777 175.414 40.6817 175.413 40.6833 175.413C40.6871 175.412 40.6904 175.412 40.6922 175.412C40.6962 175.411 40.7007 175.41 40.7051 175.41C40.7143 175.408 40.727 175.406 40.743 175.404C40.7752 175.399 40.8227 175.391 40.8853 175.381L40.8054 174.887L40.7254 174.394C40.663 174.404 40.6163 174.411 40.5852 174.416C40.5695 174.419 40.5583 174.42 40.5512 174.422C40.5495 174.422 40.5481 174.422 40.5471 174.422C40.546 174.422 40.5456 174.422 40.5456 174.422C40.5456 174.422 40.5459 174.422 40.5464 174.422C40.5469 174.422 40.548 174.422 40.5495 174.422C40.5505 174.422 40.5541 174.421 40.5587 174.421C40.5609 174.421 40.5656 174.42 40.5716 174.419C40.5746 174.419 40.5794 174.419 40.5853 174.418C40.5903 174.418 40.6013 174.418 40.6154 174.418V174.918ZM40.8054 174.887L40.8853 175.381L41.0728 175.35L40.9929 174.857L40.9129 174.363L40.7254 174.394L40.8054 174.887Z" fill="#7A3030"/>
</svg>
